# MagicaVoxel @ Ephtracy

# group
o 

# material
mtllib Sword ninja project.mtl
usemtl palette

# normals
vn -1 0 0
vn 1 0 0
vn 0 0 1
vn 0 0 -1
vn 0 -1 0
vn 0 1 0

# texcoords
vt 0.185547 0.5
vt 0.958984 0.5
vt 0.994141 0.5

# verts
v 3.1 3.2 -2.9
v 3.1 3.2 -3.6
v 3.1 3.4 -2.9
v 3.1 3.4 -3.6
v 3.3 2 -3.1
v 3.3 2 -3.4
v 3.3 3.2 -3.1
v 3.3 3.2 -3.4
v 3.3 3.4 -3.1
v 3.3 3.4 -3.4
v 3.3 7.2 -3.1
v 3.3 7.2 -3.4
v 3.5 2 -3.1
v 3.5 2 -3.4
v 3.5 3.2 -3.1
v 3.5 3.2 -3.4
v 3.5 3.4 -3.1
v 3.5 3.4 -3.4
v 3.5 7.2 -3.1
v 3.5 7.2 -3.4
v 3.7 3.2 -2.9
v 3.7 3.2 -3.6
v 3.7 3.4 -2.9
v 3.7 3.4 -3.6
v 3.1 3.2 -2.9
v 3.1 3.4 -2.9
v 3.7 3.2 -2.9
v 3.7 3.4 -2.9
v 3.3 2 -3.1
v 3.3 3.2 -3.1
v 3.3 3.4 -3.1
v 3.3 7.2 -3.1
v 3.5 2 -3.1
v 3.5 3.2 -3.1
v 3.5 3.4 -3.1
v 3.5 7.2 -3.1
v 3.3 2 -3.4
v 3.3 3.2 -3.4
v 3.3 3.4 -3.4
v 3.3 7.2 -3.4
v 3.5 2 -3.4
v 3.5 3.2 -3.4
v 3.5 3.4 -3.4
v 3.5 7.2 -3.4
v 3.1 3.2 -3.6
v 3.1 3.4 -3.6
v 3.7 3.2 -3.6
v 3.7 3.4 -3.6
v 3.3 2 -3.1
v 3.5 2 -3.1
v 3.3 2 -3.4
v 3.5 2 -3.4
v 3.1 3.2 -2.9
v 3.7 3.2 -2.9
v 3.3 3.2 -3.1
v 3.5 3.2 -3.1
v 3.3 3.2 -3.4
v 3.5 3.2 -3.4
v 3.1 3.2 -3.6
v 3.7 3.2 -3.6
v 3.1 3.4 -2.9
v 3.7 3.4 -2.9
v 3.3 3.4 -3.1
v 3.5 3.4 -3.1
v 3.3 3.4 -3.4
v 3.5 3.4 -3.4
v 3.1 3.4 -3.6
v 3.7 3.4 -3.6
v 3.3 7.2 -3.1
v 3.5 7.2 -3.1
v 3.3 7.2 -3.4
v 3.5 7.2 -3.4

# faces
f 3/1/1 2/1/1 1/1/1
f 4/1/1 2/1/1 3/1/1
f 7/3/1 6/3/1 5/3/1
f 8/3/1 6/3/1 7/3/1
f 11/2/1 10/2/1 9/2/1
f 12/2/1 10/2/1 11/2/1
f 13/3/2 14/3/2 15/3/2
f 15/3/2 14/3/2 16/3/2
f 17/2/2 18/2/2 19/2/2
f 19/2/2 18/2/2 20/2/2
f 21/1/2 22/1/2 23/1/2
f 23/1/2 22/1/2 24/1/2
f 27/1/3 26/1/3 25/1/3
f 28/1/3 26/1/3 27/1/3
f 33/3/3 30/3/3 29/3/3
f 34/3/3 30/3/3 33/3/3
f 35/2/3 32/2/3 31/2/3
f 36/2/3 32/2/3 35/2/3
f 37/3/4 38/3/4 41/3/4
f 41/3/4 38/3/4 42/3/4
f 39/2/4 40/2/4 43/2/4
f 43/2/4 40/2/4 44/2/4
f 45/1/4 46/1/4 47/1/4
f 47/1/4 46/1/4 48/1/4
f 51/3/5 50/3/5 49/3/5
f 52/3/5 50/3/5 51/3/5
f 55/1/5 54/1/5 53/1/5
f 56/1/5 54/1/5 55/1/5
f 57/1/5 55/1/5 53/1/5
f 58/1/5 54/1/5 56/1/5
f 59/1/5 57/1/5 53/1/5
f 59/1/5 58/1/5 57/1/5
f 60/1/5 54/1/5 58/1/5
f 60/1/5 58/1/5 59/1/5
f 61/1/6 62/1/6 63/1/6
f 63/1/6 62/1/6 64/1/6
f 61/1/6 63/1/6 65/1/6
f 64/1/6 62/1/6 66/1/6
f 61/1/6 65/1/6 67/1/6
f 65/1/6 66/1/6 67/1/6
f 66/1/6 62/1/6 68/1/6
f 67/1/6 66/1/6 68/1/6
f 69/2/6 70/2/6 71/2/6
f 71/2/6 70/2/6 72/2/6
